# xmcd CD database file
#
# Track frame offsets:
#	150
#	13790
#	32921
#	49810
#	71901
#	84162
#
# Disc length: 1333 seconds
#
# Revision: 0
# Processed by: cddbd v1.5.1PL0 Copyright (c) Steve Scherf et al.
# Submitted via: CDex 1.51
#
DISCID=49053306
DTITLE=Tom Gäbel - Sinatra
DYEAR=2000
DGENRE=Jazz
TTITLE0=The lady is a tramp
TTITLE1=Come fly with me
TTITLE2=That's life
TTITLE3=I get a kick out of you
TTITLE4=Fly me to the moon
TTITLE5=Theme from New York, New York
EXTD=YEAR: 2000
EXTT0=
EXTT1=
EXTT2=
EXTT3=
EXTT4=
EXTT5=
PLAYORDER=
